# xmcd
#
# Track frame offsets: 
#        182
#        11230
#        23365
#        36910
#        48550
#        64102
#        71500
#        83727
#        94020
#        106290
#        118447
#        131037
#        142065
#        156912
#
# Disc length: 2257 seconds
#
# Revision: 0
# Processed by: cddbd v1.5.2PL0 Copyright (c) Steve Scherf et al.
# Submitted via: ExactAudioCopy v0.99pb4
#
DISCID=c408cf0e
DTITLE=Various Artist - Classic Country Volume Five
DYEAR=1900
DGENRE=Country
TTITLE0=He´ll have to go
TTITLE1=The end of the world
TTITLE2=Rhiannon
TTITLE3=Oh, lonesome me
TTITLE4=Canadian pacific
TTITLE5=Crystal chandeliers
TTITLE6=Jolene
TTITLE7=Ruby, don't take your love to town
TTITLE8=Make the world go away
TTITLE9=I´m movin´ on
TTITLE10=500 miles away from home
TTITLE11=Last date
TTITLE12=Ringo
TTITLE13=Spanish eyes
EXTD=
EXTT0=
EXTT1=
EXTT2=
EXTT3=
EXTT4=
EXTT5=
EXTT6=
EXTT7=
EXTT8=
EXTT9=
EXTT10=
EXTT11=
EXTT12=
EXTT13=
PLAYORDER=
